<?xml version="1.0" standalone="no"?>
<svg xmlns:xlink="http://www.w3.org/1999/xlink" id="wave" style="transform:rotate(0deg); transition: 0.3s" viewBox="0 0 1440 210" version="1.1" xmlns="http://www.w3.org/2000/svg"><defs><linearGradient id="sw-gradient-0" x1="0" x2="0" y1="1" y2="0"><stop stop-color="rgba(4, 63, 105, 1)" offset="0%"/><stop stop-color="rgba(136, 227, 37, 1)" offset="100%"/></linearGradient></defs><path style="transform:translate(0, 0px); opacity:1" fill="url(#sw-gradient-0)" d="M0,42L17.1,56C34.3,70,69,98,103,115.5C137.1,133,171,140,206,129.5C240,119,274,91,309,66.5C342.9,42,377,21,411,14C445.7,7,480,14,514,45.5C548.6,77,583,133,617,140C651.4,147,686,105,720,91C754.3,77,789,91,823,105C857.1,119,891,133,926,119C960,105,994,63,1029,42C1062.9,21,1097,21,1131,31.5C1165.7,42,1200,63,1234,91C1268.6,119,1303,154,1337,150.5C1371.4,147,1406,105,1440,73.5C1474.3,42,1509,21,1543,31.5C1577.1,42,1611,84,1646,101.5C1680,119,1714,112,1749,122.5C1782.9,133,1817,161,1851,164.5C1885.7,168,1920,147,1954,129.5C1988.6,112,2023,98,2057,80.5C2091.4,63,2126,42,2160,31.5C2194.3,21,2229,21,2263,42C2297.1,63,2331,105,2366,122.5C2400,140,2434,133,2451,129.5L2468.6,126L2468.6,210L2451.4,210C2434.3,210,2400,210,2366,210C2331.4,210,2297,210,2263,210C2228.6,210,2194,210,2160,210C2125.7,210,2091,210,2057,210C2022.9,210,1989,210,1954,210C1920,210,1886,210,1851,210C1817.1,210,1783,210,1749,210C1714.3,210,1680,210,1646,210C1611.4,210,1577,210,1543,210C1508.6,210,1474,210,1440,210C1405.7,210,1371,210,1337,210C1302.9,210,1269,210,1234,210C1200,210,1166,210,1131,210C1097.1,210,1063,210,1029,210C994.3,210,960,210,926,210C891.4,210,857,210,823,210C788.6,210,754,210,720,210C685.7,210,651,210,617,210C582.9,210,549,210,514,210C480,210,446,210,411,210C377.1,210,343,210,309,210C274.3,210,240,210,206,210C171.4,210,137,210,103,210C68.6,210,34,210,17,210L0,210Z"/></svg>