<svg xmlns="http://www.w3.org/2000/svg" xmlns:xlink="http://www.w3.org/1999/xlink" width="500" zoomAndPan="magnify" viewBox="0 0 375 374.999991" height="500" preserveAspectRatio="xMidYMid meet" version="1.0"><defs><g/><clipPath id="2a21979ef1"><path d="M 75 208 L 153 208 L 153 280 L 75 280 Z M 75 208 " clip-rule="nonzero"/></clipPath></defs><g clip-path="url(#2a21979ef1)"><path fill="#032d50" d="M 90.691406 274.695312 C 84.863281 274.695312 80.121094 269.957031 80.121094 264.128906 C 80.121094 258.300781 84.863281 253.558594 90.691406 253.558594 C 96.519531 253.558594 101.257812 258.300781 101.257812 264.128906 C 101.257812 269.957031 96.519531 274.695312 90.691406 274.695312 Z M 149.425781 208.027344 C 148.007812 208.027344 146.851562 209.179688 146.851562 210.605469 L 146.851562 258.449219 C 146.851562 260.253906 145.386719 261.71875 143.585938 261.71875 L 106.207031 261.71875 C 105.042969 254.191406 98.535156 248.40625 90.691406 248.40625 C 82.023438 248.40625 74.96875 255.457031 74.96875 264.128906 C 74.96875 272.796875 82.023438 279.847656 90.691406 279.847656 C 98.425781 279.847656 104.855469 274.238281 106.160156 266.871094 L 143.585938 266.871094 C 148.226562 266.871094 152.003906 263.097656 152.003906 258.449219 L 152.003906 210.605469 C 152.003906 209.179688 150.851562 208.027344 149.425781 208.027344 " fill-opacity="1" fill-rule="nonzero"/></g><path fill="#032d50" d="M 284.207031 274.695312 C 278.378906 274.695312 273.636719 269.957031 273.636719 264.128906 C 273.636719 258.300781 278.378906 253.558594 284.207031 253.558594 C 290.035156 253.558594 294.773438 258.300781 294.773438 264.128906 C 294.773438 269.957031 290.035156 274.695312 284.207031 274.695312 Z M 284.207031 248.40625 C 276.359375 248.40625 269.851562 254.191406 268.691406 261.71875 L 231.3125 261.71875 C 229.511719 261.71875 228.046875 260.253906 228.046875 258.449219 L 228.046875 210.605469 C 228.046875 209.179688 226.894531 208.027344 225.46875 208.027344 C 224.046875 208.027344 222.890625 209.179688 222.890625 210.605469 L 222.890625 258.449219 C 222.890625 263.097656 226.667969 266.871094 231.3125 266.871094 L 268.742188 266.871094 C 270.042969 274.238281 276.476562 279.847656 284.207031 279.847656 C 292.875 279.847656 299.929688 272.796875 299.929688 264.128906 C 299.929688 255.457031 292.875 248.40625 284.207031 248.40625 " fill-opacity="1" fill-rule="nonzero"/><path fill="#032d50" d="M 187.449219 294.496094 C 181.621094 294.496094 176.882812 289.757812 176.882812 283.925781 C 176.882812 278.101562 181.621094 273.359375 187.449219 273.359375 C 193.277344 273.359375 198.019531 278.101562 198.019531 283.925781 C 198.019531 289.757812 193.277344 294.496094 187.449219 294.496094 Z M 190.027344 268.4375 L 190.027344 210.605469 C 190.027344 209.179688 188.871094 208.027344 187.449219 208.027344 C 186.023438 208.027344 184.875 209.179688 184.875 210.605469 L 184.875 268.4375 C 177.429688 269.671875 171.726562 276.140625 171.726562 283.925781 C 171.726562 292.601562 178.777344 299.648438 187.449219 299.648438 C 196.117188 299.648438 203.171875 292.601562 203.171875 283.925781 C 203.171875 276.140625 197.472656 269.671875 190.027344 268.4375 " fill-opacity="1" fill-rule="nonzero"/><path fill="#62d93b" d="M 132.675781 121.769531 C 109.136719 121.769531 89.988281 140.917969 89.988281 164.453125 C 89.988281 187.988281 109.136719 207.136719 132.675781 207.136719 L 241.386719 207.136719 C 264.925781 207.136719 284.074219 187.988281 284.074219 164.453125 C 284.074219 140.917969 264.925781 121.769531 241.386719 121.769531 C 238.875 121.769531 236.308594 122.003906 233.757812 122.464844 C 233.058594 122.589844 232.335938 122.421875 231.765625 121.996094 C 231.195312 121.574219 230.824219 120.929688 230.738281 120.222656 C 228.136719 97.578125 208.964844 80.503906 186.144531 80.503906 C 163.460938 80.503906 144.304688 97.460938 141.582031 119.953125 C 141.5 120.640625 141.140625 121.265625 140.59375 121.6875 C 140.046875 122.109375 139.355469 122.292969 138.664062 122.199219 C 136.644531 121.910156 134.632812 121.769531 132.675781 121.769531 Z M 241.386719 212.289062 L 132.675781 212.289062 C 106.296875 212.289062 84.835938 190.832031 84.835938 164.453125 C 84.835938 138.078125 106.296875 116.617188 132.675781 116.617188 C 134.042969 116.617188 135.4375 116.679688 136.835938 116.800781 C 140.957031 92.996094 161.714844 75.347656 186.144531 75.347656 C 210.6875 75.347656 231.449219 93.070312 235.484375 116.988281 C 237.460938 116.742188 239.441406 116.617188 241.386719 116.617188 C 267.765625 116.617188 289.226562 138.078125 289.226562 164.453125 C 289.226562 190.832031 267.765625 212.289062 241.386719 212.289062 " fill-opacity="1" fill-rule="nonzero"/><g fill="#043f69" fill-opacity="1"><g transform="translate(108.248661, 185.289348)"><g><path d="M 37.546875 -3.765625 L 1.921875 -0.1875 L 1.15625 -7.796875 L 20 -25.453125 L -0.40625 -23.390625 L -1.171875 -31 L 34.453125 -34.578125 L 35.21875 -26.96875 L 16.375 -9.328125 L 36.78125 -11.375 Z M 37.546875 -3.765625 "/></g></g></g><g fill="#043f69" fill-opacity="1"><g transform="translate(147.720488, 181.323287)"><g><path d="M 29.59375 -2.96875 L 17.59375 -1.765625 L -2.765625 -30.84375 L 10.34375 -32.15625 L 22.734375 -11.15625 L 30.671875 -34.203125 L 43.78125 -35.515625 Z M 29.59375 -2.96875 "/></g></g></g><g fill="#043f69" fill-opacity="1"><g transform="translate(194.901991, 176.582572)"><g><path d="M 16.375 -1.640625 L 3.4375 -0.34375 L 0.34375 -31.171875 L 13.28125 -32.46875 Z M 16.375 -1.640625 "/></g></g></g><g fill="#043f69" fill-opacity="1"><g transform="translate(214.70233, 174.593068)"><g><path d="M 44.4375 -4.46875 L 31.328125 -3.140625 L 21.4375 -11.703125 L 13.4375 -1.34375 L 0.328125 -0.03125 L 14.796875 -17.40625 L -2.765625 -30.84375 L 10.34375 -32.15625 L 20.1875 -24.234375 L 28.234375 -33.953125 L 41.34375 -35.28125 L 26.796875 -18.609375 Z M 44.4375 -4.46875 "/></g></g></g></svg>